Coordinates
version=1
nRows=15
nColumns=46
inDegrees=yes

Units are S.I. units (second, meters, Newtons, ...)
Angles are in degrees.

endheader
time	pelvis_tilt	pelvis_list	pelvis_rotation	pelvis_tx	pelvis_ty	pelvis_tz	bb_angle	bb_tx	bb_ty	bb_tz	hip_flexion_r	hip_adduction_r	hip_rotation_r	knee_angle_r	knee_angle_r_beta	ankle_angle_r	subtalar_angle_r	mtp_angle_r	crank_angle_r	hip_flexion_l	hip_adduction_l	hip_rotation_l	knee_angle_l	knee_angle_l_beta	ankle_angle_l	subtalar_angle_l	mtp_angle_l	crank_angle_l	lumbar_extension	lumbar_bending	lumbar_rotation	arm_flex_r	arm_add_r	arm_rot_r	elbow_flex_r	pro_sup_r	wrist_flex_r	wrist_dev_r	arm_flex_l	arm_add_l	arm_rot_l	elbow_flex_l	pro_sup_l	wrist_flex_l	wrist_dev_l
      5.00500000	     21.91723706	     13.77405220	     21.32544644	      0.27933626	      1.13583292	     -0.24714455	      0.00000000	      0.50000000	      0.00000000	      0.25000000	    -18.13332833	    -19.58798750	    -39.77000965	     43.96647944	      0.76735983	    -27.32169029	      5.85326758	      0.00000000	      0.00000000	     47.51601057	     12.55500734	      9.75383515	    117.17058223	      2.04501245	      1.64727378	      6.71828977	      0.00000000	      0.00000000	    -89.88936275	     14.24752382	    -14.76929660	     87.02984940	     -7.22210766	     80.99704813	     15.20679869	     64.09600076	      0.00000000	      0.00000000	     88.44090756	    -21.96225185	     72.45956982	     42.60341445	     47.48270180	      0.00000000	      0.00000000
      5.01000000	     21.93434777	     14.57817126	     21.76732863	      0.27765739	      1.13433354	     -0.24775876	      0.00000000	      0.50000000	      0.00000000	      0.25000000	    -18.10869839	    -20.66173556	    -39.76698927	     46.83591772	      0.81744097	    -25.41151186	      4.86428548	      0.00000000	      0.00000000	     47.08494351	     14.16560826	      9.55721167	    116.24507120	      2.02885923	      3.42263521	      6.46750517	      0.00000000	      0.00000000	    -89.89208942	     14.44988397	    -15.54095590	     87.03129823	     -7.26873780	     81.12022703	     15.22140422	     64.20719008	      0.00000000	      0.00000000	     88.37135967	    -21.94473808	     71.99944617	     42.85008749	     47.45465539	      0.00000000	      0.00000000
      5.01500000	     21.97407441	     15.23341964	     22.27918100	      0.27588128	      1.13269014	     -0.24844147	      0.00000000	      0.50000000	      0.00000000	      0.25000000	    -17.98464136	    -21.52122103	    -39.75235210	     49.74548120	      0.86822243	    -23.70373037	      3.29842432	      0.00000000	      0.00000000	     46.42766113	     15.67098024	      9.63398063	    115.17022311	      2.01009959	      5.38582670	      6.43820201	      0.00000000	      0.00000000	    -89.89385171	     14.71653838	    -16.07427267	     87.02042987	     -7.38103368	     81.18917562	     15.08976147	     64.25445310	      0.00000000	      0.00000000	     88.37684225	    -21.79299151	     71.84170529	     42.99629263	     47.45196808	      0.00000000	      0.00000000
      5.02000000	     22.00750978	     16.08370032	     22.77113988	      0.27409277	      1.13108225	     -0.24923354	      0.00000000	      0.50000000	      0.00000000	      0.25000000	    -17.89834227	    -22.66218050	    -39.73725464	     52.79542696	      0.92145403	    -22.01170843	      1.98838265	      0.00000000	      0.00000000	     45.46623109	     17.33884458	      9.60803673	    113.85178633	      1.98708853	      7.43153485	      5.94905164	      0.00000000	      0.00000000	    -89.89788221	     14.99608652	    -16.97743918	     86.98959703	     -7.26606257	     81.36528781	     14.99917989	     64.38779822	      0.00000000	      0.00000000	     88.31591643	    -21.96106134	     71.50354172	     43.31166366	     47.45249207	      0.00000000	      0.00000000
      5.02500000	     22.10019972	     16.75341642	     23.27718843	      0.27233019	      1.12928929	     -0.24992477	      0.00000000	      0.50000000	      0.00000000	      0.25000000	    -17.72097062	    -23.59124908	    -39.71089668	     55.88424265	      0.97536403	    -20.62390194	      0.26238597	      0.00000000	      0.00000000	     44.34096593	     18.80684553	      9.89582814	    112.42245877	      1.96214206	      9.51098660	      5.70923976	      0.00000000	      0.00000000	    -89.89982760	     15.25866332	    -17.56291189	     86.94889414	     -7.34903771	     81.43546634	     14.84562059	     64.43839162	      0.00000000	      0.00000000	     88.29509876	    -21.85655868	     71.39622911	     43.51169995	     47.46686537	      0.00000000	      0.00000000
      5.03000000	     22.19438984	     17.60259324	     23.73175448	      0.27062508	      1.12765046	     -0.25078754	      0.00000000	      0.50000000	      0.00000000	      0.25000000	    -17.63512052	    -24.77469230	    -39.68260661	     58.94801931	      1.02883702	    -19.56692535	     -0.99016632	      0.00000000	      0.00000000	     42.97059457	     20.36016377	     10.05372866	    110.76698564	      1.93324860	     11.42043443	      5.10697792	      0.00000000	      0.00000000	    -89.90353524	     15.50896091	    -18.47885625	     86.94085325	     -7.31555191	     81.52912378	     14.60598949	     64.51044330	      0.00000000	      0.00000000	     88.21479132	    -22.00563814	     71.17821302	     43.73536228	     47.47512062	      0.00000000	      0.00000000
      5.03500000	     22.31983635	     18.39148171	     24.21534365	      0.26904268	      1.12592455	     -0.25165556	      0.00000000	      0.50000000	      0.00000000	      0.25000000	    -17.56873989	    -25.89612556	    -39.64425738	     62.01510080	      1.08236769	    -17.99959381	     -1.94044172	      0.00000000	      0.00000000	     41.44788475	     21.91752134	     10.42879195	    109.02021093	      1.90276163	     13.08938857	      4.16951622	      0.00000000	      0.00000000	    -89.90739092	     15.80865099	    -19.49430396	     86.90103580	     -6.99036294	     81.74141560	     14.28767443	     64.70792950	      0.00000000	      0.00000000	     88.02462945	    -22.46051835	     70.79730915	     44.37154144	     47.53631572	      0.00000000	      0.00000000
      5.04000000	     22.58583191	     18.71745896	     24.81953834	      0.26736616	      1.12411089	     -0.25279821	      0.00000000	      0.50000000	      0.00000000	      0.25000000	    -17.44090582	    -26.39717883	    -39.57605652	     64.83350317	      1.13155810	    -17.17077941	     -3.07098036	      0.00000000	      0.00000000	     39.81617628	     23.11111310	     11.33881665	    107.32112188	      1.87310693	     14.68109368	      3.42931729	      0.00000000	      0.00000000	    -89.91235708	     16.35845887	    -19.66225173	     86.78930043	     -6.99917620	     81.79175018	     14.27140068	     64.75112077	      0.00000000	      0.00000000	     87.83505966	    -22.36575329	     70.79364743	     44.47499706	     47.55395003	      0.00000000	      0.00000000
      5.04500000	     22.78819358	     19.38758772	     25.26667387	      0.26579652	      1.12233007	     -0.25373247	      0.00000000	      0.50000000	      0.00000000	      0.25000000	    -17.34798150	    -27.39185834	    -39.44840573	     67.77110011	      1.18282883	    -16.32017892	     -4.11164913	      0.00000000	      0.00000000	     38.05681461	     24.43697559	     11.93675129	    105.38257580	      1.83927292	     15.99010132	      2.46434000	      0.00000000	      0.00000000	    -89.91600766	     16.66614894	    -20.25164342	     86.74552750	     -7.10085555	     81.85924324	     14.23290734	     64.80442554	      0.00000000	      0.00000000	     87.68489407	    -22.28980803	     70.71671701	     44.55687253	     47.55995881	      0.00000000	      0.00000000
      5.05000000	     22.92398983	     20.62030376	     25.48323653	      0.26435455	      1.12095357	     -0.25471615	      0.00000000	      0.50000000	      0.00000000	      0.25000000	    -17.47349697	    -29.22102938	    -39.34151184	     70.65040273	      1.23308215	    -15.82274766	     -4.41043498	      0.00000000	      0.00000000	     36.05852118	     26.21784709	     12.08611700	    103.03395430	      1.79828174	     16.41683057	      0.61220206	      0.00000000	      0.00000000	    -89.91949729	     16.74159237	    -21.64791697	     86.65323129	     -6.97186728	     82.14149144	     14.34187626	     65.00414274	      0.00000000	      0.00000000	     87.51375904	    -22.49816500	     70.33406362	     44.70335545	     47.54718461	      0.00000000	      0.00000000
      5.05500000	     23.17899643	     21.43408629	     25.79841565	      0.26288063	      1.11947741	     -0.25578817	      0.00000000	      0.50000000	      0.00000000	      0.25000000	    -17.53234972	    -30.45194649	    -39.14348828	     73.36228419	      1.28041341	    -15.12564617	     -4.50392476	      0.00000000	      0.00000000	     34.01146864	     27.61704309	     12.74930832	    100.80338166	      1.75935091	     16.76876253	     -1.16153793	      0.00000000	      0.00000000	    -89.92372372	     17.12417660	    -22.77574663	     86.83142471	     -6.46218244	     83.13342010	     13.98028853	     66.00343468	      0.00000000	      0.00000000	     86.93798492	    -23.34073653	     69.22547314	     45.89677640	     47.66944332	      0.00000000	      0.00000000
      5.06000000	     23.54230927	     21.76161045	     26.02173022	      0.26141636	      1.11759048	     -0.25685545	      0.00000000	      0.50000000	      0.00000000	      0.25000000	    -17.25494036	    -31.18807347	    -38.68232763	     76.00201296	      1.32648536	    -14.75917580	     -4.86735254	      0.00000000	      0.00000000	     32.07257339	     28.41660084	     13.66620970	     98.74895752	      1.72349444	     16.97370545	     -2.63714144	      0.00000000	      0.00000000	    -89.92739471	     17.39419778	    -23.05205153	     86.83472023	     -6.51981433	     83.30856263	     13.92349008	     66.31792611	      0.00000000	      0.00000000	     86.75605653	    -23.16833121	     69.15976762	     45.69213599	     47.64276784	      0.00000000	      0.00000000
      5.06500000	     23.93727258	     21.84244158	     26.08827994	      0.25994656	      1.11558337	     -0.25774180	      0.00000000	      0.50000000	      0.00000000	      0.25000000	    -16.63509965	    -31.65508759	    -37.77680999	     78.59181838	      1.37168600	    -14.60777843	     -5.04526152	      0.00000000	      0.00000000	     30.21713646	     28.82978369	     14.62670115	     96.73693530	      1.68837803	     17.06254493	     -3.93916965	      0.00000000	      0.00000000	    -89.93054683	     17.56032382	    -23.09953104	     86.91327122	     -6.57448840	     83.51934328	     13.85653096	     66.58133587	      0.00000000	      0.00000000	     86.62379954	    -23.00173324	     69.08498081	     45.50984657	     47.61475708	      0.00000000	      0.00000000
      5.07000000	     24.40052599	     21.71779128	     26.25083145	      0.25837553	      1.11353349	     -0.25869662	      0.00000000	      0.50000000	      0.00000000	      0.25000000	    -15.94857256	    -31.82799409	    -36.84562028	     81.08700914	      1.41523529	    -14.51011721	     -5.23629127	      0.00000000	      0.00000000	     28.33691212	     29.03080932	     15.92334242	     94.83663376	      1.65521151	     17.19408298	     -4.44600123	      0.00000000	      0.00000000	    -89.93376162	     17.90012793	    -22.92605922	     86.94662661	     -6.57898561	     83.57669995	     13.84405431	     66.63930925	      0.00000000	      0.00000000	     86.48201256	    -22.96273239	     69.11349919	     45.46541100	     47.61438580	      0.00000000	      0.00000000
      5.07500000	     24.74831686	     21.75774021	     26.04141518	      0.25703916	      1.11126861	     -0.25926383	      0.00000000	      0.50000000	      0.00000000	      0.25000000	    -14.88451999	    -32.43361700	    -35.48124636	     83.79444206	      1.46248891	    -14.11624188	     -5.29631589	      0.00000000	      0.00000000	     26.68541703	     29.14953330	     16.62636864	     92.87785033	      1.62102429	     17.02347027	     -5.73161242	      0.00000000	      0.00000000	    -89.93563528	     17.78799168	    -22.94449333	     87.16035488	     -6.63297969	     83.74795869	     13.74983131	     66.77707984	      0.00000000	      0.00000000	     86.44902865	    -22.79710453	     69.12679462	     45.30061997	     47.59282871	      0.00000000	      0.00000000
